<?xml version="1.0" ?><!-- Uploaded to: SVG Repo, www.svgrepo.com, Generator: SVG Repo Mixer Tools -->
<svg fill="#000000" width="800px" height="800px" viewBox="0 -0.08 20 20" data-name="Capa 1" id="Capa_1" xmlns="http://www.w3.org/2000/svg"><path d="M18.19,10.24a8.17,8.17,0,0,0-3-5.18A8.28,8.28,0,0,0,10,3.32h0A9.14,9.14,0,0,0,5.12,4.85a7.93,7.93,0,0,0-3.41,6.33A7.84,7.84,0,0,0,2.94,16a1.47,1.47,0,0,0,1.18.57,1.63,1.63,0,0,0,.64-.13,1.4,1.4,0,0,0,.76-1.68.3.3,0,0,0,0-.1s-1.6-3-.11-5.57L5.4,9h0s0,0,0,0A5.05,5.05,0,0,1,10,6.32,5.48,5.48,0,0,1,14.61,9a5.09,5.09,0,0,1,.58,3.54l-5-1.88a.38.38,0,1,0-.27.7L15,13.25a5.92,5.92,0,0,1-.37,1,1.63,1.63,0,0,0-.14,1.36,1.38,1.38,0,0,0,.75.8c.65.27,1.55.3,2.2-1.1A8.09,8.09,0,0,0,18.19,10.24ZM4.8,14.92a.64.64,0,0,1-.35.78.74.74,0,0,1-.9-.2,7,7,0,0,1-1.09-4.26,9,9,0,0,1,.8-3.1l1.33.78A6.93,6.93,0,0,0,4.8,14.92ZM5,8.27,3.62,7.49a7.23,7.23,0,0,1,2-2A8.34,8.34,0,0,1,9.69,4.09l0,1.49A5.71,5.71,0,0,0,5,8.27Zm5.44-2.69,0-1.5a7.33,7.33,0,0,1,4.25,1.55,8,8,0,0,1,1.69,1.88L15,8.28A6.25,6.25,0,0,0,10.41,5.58ZM16.78,15c-.48,1-1,.85-1.23.73a.67.67,0,0,1-.34-.36,1,1,0,0,1,.1-.77,5.67,5.67,0,0,0,.41-1l.29.11a.35.35,0,0,0,.14,0,.39.39,0,0,0,.35-.25.38.38,0,0,0-.22-.48l-.38-.14a6,6,0,0,0-.47-3.86l1.32-.75a7.3,7.3,0,0,1,.7,2.19A7.37,7.37,0,0,1,16.78,15Z"/><path d="M7.87,7.5a.34.34,0,1,0,.33.33A.34.34,0,0,0,7.87,7.5Z"/><circle cx="12.14" cy="7.81" r="0.33"/><path d="M14.85,11.62a.34.34,0,1,0-.34.33A.34.34,0,0,0,14.85,11.62Z"/><path d="M5.58,11.29a.33.33,0,1,0,.34.33A.33.33,0,0,0,5.58,11.29Z"/></svg>