<?xml version="1.0" encoding="iso-8859-1"?>
<!-- Uploaded to: SVG Repo, www.svgrepo.com, Generator: SVG Repo Mixer Tools -->
<svg fill="#000000" height="800px" width="800px" version="1.1" id="Layer_1" xmlns="http://www.w3.org/2000/svg" xmlns:xlink="http://www.w3.org/1999/xlink" 
	 viewBox="0 0 330 330" xml:space="preserve">
<g id="XMLID_22_">
	<path id="XMLID_23_" d="M315.001,30.018L30,30.001V15c0-8.283-6.716-15-15-15S0,6.717,0,15v300c0,8.284,6.716,15,15,15
		s15-6.716,15-15V60.001l90,0.005V90H75c-8.284,0-15,6.717-15,15v130c0,8.284,6.716,15,15,15h210c8.284,0,15-6.716,15-15V105
		c0-8.283-6.716-15-15-15h-45V60.013l74.999,0.005H315c8.283,0,15-6.717,15-15S323.285,30.018,315.001,30.018z M210,90h-60V60.018
		h60V90z"/>
</g>
</svg>