<?xml version="1.0" encoding="utf-8"?>

<!DOCTYPE svg PUBLIC "-//W3C//DTD SVG 1.1//EN" "http://www.w3.org/Graphics/SVG/1.1/DTD/svg11.dtd">
<!-- Uploaded to: SVG Repo, www.svgrepo.com, Generator: SVG Repo Mixer Tools -->
<svg version="1.1" id="_x32_" xmlns="http://www.w3.org/2000/svg" xmlns:xlink="http://www.w3.org/1999/xlink" 
	 width="800px" height="800px" viewBox="0 0 512 512"  xml:space="preserve">
<style type="text/css">
<![CDATA[
	.st0{fill:#000000;}
]]>
</style>
<g>
	<path class="st0" d="M504.918,99.144c-1.75-8.797-4.188-13.266-4.188-13.266c-0.75-2.375-2.781-4.125-5.234-4.516
		c-2.469-0.391-4.938,0.641-6.391,2.672l-6.531,9.141l-36.891,51.813c-7.125,9.969-21.672,11.781-32.5,4.047l-62.125-44.453
		c-10.813-7.734-13.813-22.094-6.672-32.063l37.781-53.063l6.203-8.656c1.438-2.016,1.625-4.688,0.484-6.875
		c-1.156-2.203-3.438-3.563-5.922-3.531c0,0-5.859-1-15.234,0.188c-23.578,3.016-46.547,12.828-65.766,29.672
		c-27.109,23.75-41.359,56.734-42.156,90.141c-0.25,10.078,8.859,53.828-14.938,77.625S19.996,422.847,19.996,422.847
		c-20.391,20.406-20.391,53.469,0,73.859c20.406,20.391,53.469,20.391,73.859,0c0,0,205.969-205.968,224.844-224.843
		s71.203-24.469,81.578-25.875c23.25-3.141,45.844-12.922,64.813-29.547C499.574,186.222,513.262,141.097,504.918,99.144z
		 M40.012,476.706c-9.781-9.781-9.781-25.609,0-35.391c9.766-9.766,25.609-9.781,35.375,0c9.781,9.766,9.781,25.609,0,35.391
		C65.621,486.472,49.777,486.472,40.012,476.706z"/>
</g>
</svg>