<?xml version="1.0" encoding="utf-8"?>
<!-- Uploaded to: SVG Repo, www.svgrepo.com, Generator: SVG Repo Mixer Tools -->
<svg width="800px" height="800px" viewBox="-2 0 32 32" xmlns="http://www.w3.org/2000/svg">
  <g id="Lager_7" data-name="Lager 7" transform="translate(-2)">
    <g id="Path_11" data-name="Path 11" fill="none" stroke-miterlimit="10">
      <path d="M16.031,0A14,14,0,0,0,4.544,21.957L2,32l13.444-4.03c.2.008.389.03.587.03a14,14,0,0,0,0-28Z" stroke="none"/>
      <path d="M 16.0310001373291 4 C 10.53407096862793 4 6.062000274658203 8.485984802246094 6.062000274658203 14 C 6.062000274658203 16.03805732727051 6.675342559814453 18.00370025634766 7.835699081420898 19.68439865112305 L 8.867456436157227 21.17882919311523 L 8.421527862548828 22.9392147064209 L 7.610115051269531 26.1424503326416 L 14.29544258117676 24.13844299316406 L 14.93745803833008 23.94599914550781 L 15.60712814331055 23.97332763671875 C 15.73944282531738 23.97872924804688 15.85449981689453 23.98667144775391 15.94695663452148 23.9930419921875 C 15.98204612731934 23.99546813964844 16.02829742431641 23.99865531921387 16.05273818969727 23.99997711181641 C 21.53953170776367 23.98795127868652 26 19.50661087036133 26 14 C 26 8.485984802246094 21.52792739868164 4 16.0310001373291 4 M 16.0310001373291 0 C 23.74600028991699 0 30 6.267999649047852 30 14 C 30 21.73200035095215 23.74600028991699 28 16.0310001373291 28 C 15.83300018310547 28 15.63999938964844 27.97800064086914 15.44400024414063 27.96999931335449 L 2 32 L 4.544000625610352 21.95700073242188 C 2.982999801635742 19.69599914550781 2.062000274658203 16.95700073242188 2.062000274658203 14 C 2.062000274658203 6.267999649047852 8.315999984741211 0 16.0310001373291 0 Z" stroke="none" fill="#040505"/>
    </g>
  </g>
</svg>